<?xml version="1.0" standalone="no"?>
<!DOCTYPE svg PUBLIC "-//W3C//DTD SVG 20010904//EN"
 "http://www.w3.org/TR/2001/REC-SVG-20010904/DTD/svg10.dtd">
<svg version="1.0" xmlns="http://www.w3.org/2000/svg"
 width="1024.000000pt" height="1024.000000pt" viewBox="0 0 1024.000000 1024.000000"
 preserveAspectRatio="xMidYMid meet">

<g transform="translate(0.000000,1024.000000) scale(0.100000,-0.100000)"
fill="#000000" stroke="none">
<path d="M5105 7064 c-262 -64 -353 -102 -483 -201 -40 -31 -96 -81 -123 -112
-46 -50 -149 -195 -149 -208 0 -3 -13 -33 -29 -67 -29 -60 -68 -189 -90 -294
-31 -151 -32 -500 -2 -633 39 -172 60 -240 113 -379 17 -43 106 -198 119 -206
6 -3 8 23 5 68 -5 89 10 331 29 453 30 193 107 394 197 520 94 129 187 199
349 263 55 21 181 35 277 29 222 -14 428 -111 596 -282 46 -47 86 -85 89 -85
3 0 15 19 27 43 169 324 220 419 231 431 5 6 9 16 9 23 0 7 11 31 25 53 14 22
25 48 25 59 0 10 -33 52 -73 93 -192 195 -408 326 -652 395 -112 33 -131 35
-295 38 -96 2 -184 2 -195 -1z"/>
<path d="M3820 5089 c1 -437 100 -882 267 -1199 95 -180 190 -300 338 -426 51
-43 186 -134 199 -134 2 0 37 -15 78 -34 99 -45 118 -52 229 -76 261 -57 607
-39 834 44 102 37 291 137 315 166 3 3 16 14 29 23 67 46 230 217 287 302 l34
51 -2 664 -3 665 -290 3 c-159 1 -300 0 -312 -3 l-23 -5 0 -514 0 -514 -63
-40 c-125 -79 -228 -120 -389 -153 -216 -45 -519 1 -722 108 -287 153 -512
424 -665 800 -49 120 -98 271 -114 352 -7 33 -16 63 -20 67 -4 4 -7 -62 -7
-147z"/>
</g>
</svg>
