<?xml version="1.0" standalone="no"?>
<!DOCTYPE svg PUBLIC "-//W3C//DTD SVG 20010904//EN"
 "http://www.w3.org/TR/2001/REC-SVG-20010904/DTD/svg10.dtd">
<svg version="1.0" xmlns="http://www.w3.org/2000/svg"
 width="100.000000pt" height="100.000000pt" viewBox="0 0 100.000000 100.000000"
 preserveAspectRatio="xMidYMid meet">

<g transform="translate(0.000000,100.000000) scale(0.100000,-0.100000)"
fill="#000000" stroke="none">
<path d="M442 838 c-142 -22 -257 -138 -281 -284 -12 -76 0 -151 35 -214 l27
-51 -36 -37 -37 -38 28 -27 c15 -15 32 -27 37 -27 5 0 24 14 42 32 l33 31 48
-26 c66 -36 154 -49 229 -33 226 46 345 297 235 499 l-25 47 31 33 c18 18 32
37 32 42 0 5 -12 22 -27 37 l-27 28 -37 -36 -37 -36 -64 30 c-70 34 -127 42
-206 30z m167 -23 c23 -8 56 -24 72 -36 l31 -21 37 36 37 36 22 -22 22 -22
-36 -37 -36 -37 25 -38 c37 -57 50 -112 45 -195 -9 -173 -134 -298 -307 -307
-83 -5 -138 8 -195 45 l-38 25 -37 -36 -37 -36 -22 22 -22 22 36 37 36 37 -21
31 c-50 70 -67 203 -36 290 32 92 111 172 203 206 50 18 170 18 221 0z"/>
<path d="M453 759 c-169 -31 -262 -208 -193 -366 12 -29 25 -53 29 -53 8 0
371 363 371 371 0 10 -92 46 -130 51 -19 3 -54 1 -77 -3z m140 -24 c20 -8 38
-18 41 -23 7 -12 -338 -354 -348 -345 -36 36 -48 166 -21 231 21 49 80 110
130 133 49 23 148 25 198 4z"/>
<path d="M281 504 c0 -11 3 -14 6 -6 3 7 2 16 -1 19 -3 4 -6 -2 -5 -13z"/>
<path d="M522 477 c-100 -100 -182 -185 -182 -188 0 -17 108 -51 160 -51 192
0 317 193 240 370 -12 28 -25 52 -29 52 -3 0 -88 -82 -189 -183z m213 116 c21
-50 19 -149 -4 -198 -23 -50 -84 -109 -133 -130 -65 -27 -195 -15 -231 21 -9
10 333 355 345 348 5 -3 15 -21 23 -41z"/>
</g>
</svg>
